<svg xmlns="http://www.w3.org/2000/svg" viewBox="0 0 512 512" width="512" height="512">
	<style>
		tspan { white-space:pre }
		.shp0 { fill: #000000 } 
	</style>
	<g id="Layer">
		<path id="Layer" fill-rule="evenodd" class="shp0" d="M412.56 398.48C415.48 404.53 414.02 411.78 409 416.23C406.18 418.72 402.63 420 399.05 420C396.25 420 393.44 419.22 390.95 417.62L256 331.02L121.05 417.62C115.4 421.25 108.03 420.68 103 416.23C97.98 411.78 96.52 404.53 99.44 398.48L242.49 101.86C244.99 96.68 250.24 93.38 256 93.38C261.76 93.38 267.01 96.68 269.51 101.86L412.56 398.48ZM149.51 363.71L241 305L241 174.01L149.51 363.71ZM362.49 363.71L271 174.01L271 305L362.49 363.71Z" />
	</g>
</svg>