<svg xmlns="http://www.w3.org/2000/svg" viewBox="0 0 600 600" width="600" height="600">
	<style>
		tspan { white-space:pre }
		.shp0 { fill: #ffe07d } 
		.shp1 { fill: #ffd064 } 
		.shp2 { fill: #000000 } 
	</style>
	<g id="Layer">
		<g id="Layer">
			<path id="Layer" class="shp0" d="M300 432.53C226.71 432.53 167.47 373.29 167.47 300C167.47 226.71 226.71 167.47 300 167.47C373.29 167.47 432.53 226.71 432.53 300C432.53 373.29 373.29 432.53 300 432.53Z" />
			<path id="Layer" class="shp0" d="M300 432.53C226.71 432.53 167.47 373.29 167.47 300C167.47 226.71 226.71 167.47 300 167.47C373.29 167.47 432.53 226.71 432.53 300C432.53 373.29 373.29 432.53 300 432.53Z" />
			<path id="Layer" class="shp1" d="M300 167.47C296.13 167.47 292.29 167.64 288.5 167.97C356.31 173.8 409.53 230.68 409.53 300C409.53 369.32 356.31 426.2 288.5 432.03C292.29 432.36 296.13 432.53 300 432.53C373.2 432.53 432.53 373.2 432.53 300C432.53 226.8 373.2 167.47 300 167.47L300 167.47Z" />
		</g>
		<g id="Layer">
			<path id="Layer" class="shp2" d="M300 159.97C222.79 159.97 159.97 222.79 159.97 300C159.97 332.03 170.49 362.18 190.41 387.18C192.99 390.42 197.71 390.95 200.95 388.37C204.19 385.79 204.72 381.08 202.14 377.84C184.36 355.52 174.97 328.6 174.97 300C174.97 231.06 231.06 174.97 300 174.97C368.94 174.97 425.03 231.06 425.03 300C425.03 368.94 368.94 425.03 300 425.03C271.4 425.03 244.48 415.64 222.16 397.85C218.92 395.27 214.2 395.81 211.62 399.05C209.04 402.29 209.57 407.01 212.81 409.59C237.82 429.5 267.97 440.03 300 440.03C377.21 440.03 440.03 377.21 440.03 300C440.03 222.79 377.21 159.97 300 159.97L300 159.97Z" />
			<path id="Layer" class="shp2" d="M300 141.83C304.14 141.83 307.5 138.48 307.5 134.33L307.5 107.92C307.5 103.78 304.14 100.42 300 100.42C295.86 100.42 292.5 103.78 292.5 107.92L292.5 134.33C292.5 138.48 295.86 141.83 300 141.83Z" />
			<path id="Layer" class="shp2" d="M300 85.42C304.14 85.42 307.5 82.06 307.5 77.92L307.5 51.5C307.5 47.36 304.14 44 300 44C295.86 44 292.5 47.36 292.5 51.5L292.5 77.92C292.5 82.06 295.86 85.42 300 85.42Z" />
			<path id="Layer" class="shp2" d="M177.55 188.16C179.02 189.62 180.94 190.36 182.86 190.36C184.78 190.36 186.69 189.62 188.16 188.16C191.09 185.23 191.09 180.48 188.16 177.55L129.59 118.98C126.66 116.05 121.91 116.05 118.98 118.98C116.05 121.91 116.05 126.66 118.98 129.59L177.55 188.16Z" />
			<path id="Layer" class="shp2" d="M141.83 300C141.83 295.86 138.48 292.5 134.33 292.5L51.5 292.5C47.36 292.5 44 295.86 44 300C44 304.14 47.36 307.5 51.5 307.5L134.33 307.5C138.48 307.5 141.83 304.14 141.83 300Z" />
			<path id="Layer" class="shp2" d="M177.55 411.84L118.98 470.41C116.05 473.34 116.05 478.09 118.98 481.02C120.44 482.48 122.36 483.22 124.28 483.22C126.2 483.22 128.12 482.48 129.59 481.02L188.16 422.45C191.09 419.52 191.09 414.77 188.16 411.84C185.23 408.91 180.48 408.91 177.55 411.84Z" />
			<path id="Layer" class="shp2" d="M300 458.17C295.86 458.17 292.5 461.52 292.5 465.67L292.5 548.5C292.5 552.64 295.86 556 300 556C304.14 556 307.5 552.64 307.5 548.5L307.5 465.67C307.5 461.52 304.14 458.17 300 458.17L300 458.17Z" />
			<path id="Layer" class="shp2" d="M422.45 411.84C419.52 408.91 414.77 408.91 411.84 411.84C408.91 414.77 408.91 419.52 411.84 422.45L470.41 481.02C471.88 482.48 473.8 483.22 475.72 483.22C477.64 483.22 479.56 482.48 481.02 481.02C483.95 478.09 483.95 473.34 481.02 470.41L422.45 411.84Z" />
			<path id="Layer" class="shp2" d="M548.5 292.5L465.67 292.5C461.53 292.5 458.17 295.86 458.17 300C458.17 304.14 461.53 307.5 465.67 307.5L548.5 307.5C552.64 307.5 556 304.14 556 300C556 295.86 552.64 292.5 548.5 292.5Z" />
			<path id="Layer" class="shp2" d="M417.14 190.36C419.06 190.36 420.98 189.62 422.45 188.16L481.02 129.59C483.95 126.66 483.95 121.91 481.02 118.98C478.09 116.05 473.34 116.05 470.41 118.98L411.84 177.55C408.91 180.48 408.91 185.23 411.84 188.16C413.31 189.62 415.23 190.36 417.14 190.36Z" />
			<path id="Layer" class="shp2" d="M229.67 149.81C230.87 152.7 233.66 154.45 236.6 154.45C237.56 154.45 238.53 154.26 239.47 153.87C243.3 152.29 245.12 147.9 243.53 144.07L227.68 105.81C226.09 101.98 221.71 100.17 217.88 101.75C214.05 103.34 212.24 107.72 213.82 111.55L229.67 149.81Z" />
			<path id="Layer" class="shp2" d="M105.81 227.68L144.07 243.53C145.01 243.92 145.99 244.11 146.94 244.11C149.88 244.11 152.68 242.36 153.87 239.47C155.46 235.65 153.64 231.26 149.81 229.67L111.55 213.82C107.72 212.24 103.34 214.06 101.75 217.88C100.17 221.71 101.98 226.1 105.81 227.68L105.81 227.68Z" />
			<path id="Layer" class="shp2" d="M153.87 360.53C152.29 356.7 147.9 354.88 144.07 356.47L105.81 372.32C101.98 373.9 100.17 378.29 101.75 382.12C102.95 385.01 105.74 386.75 108.68 386.75C109.64 386.75 110.61 386.57 111.55 386.18L149.81 370.33C153.64 368.74 155.46 364.35 153.87 360.53L153.87 360.53Z" />
			<path id="Layer" class="shp2" d="M239.47 446.13C235.65 444.54 231.26 446.36 229.67 450.19L213.82 488.45C212.24 492.28 214.06 496.66 217.88 498.25C218.82 498.64 219.79 498.82 220.75 498.82C223.69 498.82 226.48 497.08 227.68 494.19L243.53 455.93C245.12 452.1 243.3 447.71 239.47 446.13L239.47 446.13Z" />
			<path id="Layer" class="shp2" d="M370.33 450.19C368.74 446.36 364.35 444.54 360.53 446.13C356.7 447.71 354.88 452.1 356.47 455.93L372.32 494.19C373.52 497.08 376.31 498.82 379.25 498.82C380.21 498.82 381.18 498.64 382.12 498.25C385.95 496.66 387.76 492.28 386.18 488.45L370.33 450.19Z" />
			<path id="Layer" class="shp2" d="M494.19 372.32L455.93 356.47C452.1 354.88 447.71 356.7 446.13 360.53C444.54 364.35 446.36 368.74 450.19 370.33L488.45 386.18C489.39 386.56 490.36 386.75 491.32 386.75C494.26 386.75 497.05 385 498.25 382.12C499.83 378.29 498.02 373.9 494.19 372.32L494.19 372.32Z" />
			<path id="Layer" class="shp2" d="M446.13 239.47C447.32 242.36 450.12 244.1 453.06 244.1C454.02 244.1 454.99 243.92 455.93 243.53L494.19 227.68C498.02 226.1 499.83 221.71 498.25 217.88C496.66 214.06 492.28 212.24 488.45 213.82L450.19 229.67C446.36 231.26 444.54 235.65 446.13 239.47L446.13 239.47Z" />
			<path id="Layer" class="shp2" d="M360.53 153.87C361.47 154.26 362.44 154.45 363.4 154.45C366.34 154.45 369.13 152.7 370.33 149.81L386.18 111.55C387.76 107.72 385.95 103.34 382.12 101.75C378.29 100.17 373.9 101.98 372.32 105.81L356.47 144.07C354.88 147.9 356.7 152.29 360.53 153.87L360.53 153.87Z" />
		</g>
	</g>
</svg>