<svg xmlns="http://www.w3.org/2000/svg" viewBox="0 0 600 600" width="600" height="600">
	<style>
		tspan { white-space:pre }
		.shp0 { fill: #ffe07d } 
		.shp1 { fill: #ffd064 } 
		.shp2 { fill: #ecf4ff } 
		.shp3 { fill: #ddeafb } 
		.shp4 { fill: #000000 } 
	</style>
	<g id="Layer">
		<g id="Layer">
			<g id="Layer">
				<path id="Layer" class="shp0" d="M448.26 247.12C440.93 292.34 398.46 322.96 353.25 315.63C308.04 308.3 277.41 265.83 284.74 220.62C292.07 175.41 334.54 144.79 379.75 152.11C424.96 159.44 455.58 201.91 448.26 247.12Z" />
				<path id="Layer" class="shp1" d="M366.57 151.04C362.67 151.04 358.83 151.33 355.07 151.86C395.38 157.46 426.41 192.03 426.41 233.88C426.41 275.72 395.38 310.3 355.08 315.9C358.84 316.42 362.67 316.71 366.58 316.71C412.32 316.71 449.41 279.63 449.41 233.88C449.41 188.13 412.32 151.04 366.58 151.04L366.57 151.04Z" />
			</g>
			<g id="Layer">
				<path id="Layer" class="shp2" d="M482.2 416.11L482.17 416.11C480.95 416.11 479.9 415.29 479.56 414.12C471.53 386.55 446.08 366.41 415.93 366.41C404.65 366.41 394.04 369.24 384.75 374.21C381.11 376.15 376.59 375.14 374.27 371.72C365.34 358.52 350.23 349.84 333.1 349.84C329.09 349.84 325.19 350.32 321.46 351.22C317.42 352.19 313.24 350.02 311.94 346.07C299.94 309.77 265.74 283.58 225.41 283.58C175.09 283.58 134.3 324.37 134.3 374.69C134.3 375.84 134.32 376.97 134.37 378.1C134.42 379.22 134.05 380.32 133.36 381.2L133.29 381.3C132.43 382.4 131.12 383.05 129.72 383.13C85.63 385.53 50.71 422.39 51.47 467.25C52.25 512.61 89.97 548.64 135.34 548.64L481.21 548.64C517.63 548.64 547.98 519.67 548.46 483.26C548.94 446.26 519.09 416.11 482.2 416.11Z" />
				<path id="Layer" class="shp2" d="M482.2 416.11L482.17 416.11C480.95 416.11 479.9 415.29 479.56 414.12C471.53 386.55 446.08 366.41 415.93 366.41C404.65 366.41 394.04 369.24 384.75 374.21C381.11 376.15 376.59 375.14 374.27 371.72C365.34 358.52 350.23 349.84 333.1 349.84C329.09 349.84 325.19 350.32 321.46 351.22C317.42 352.19 313.24 350.02 311.94 346.07C299.94 309.77 265.74 283.58 225.41 283.58C175.09 283.58 134.3 324.37 134.3 374.69C134.3 375.84 134.32 376.97 134.37 378.1C134.42 379.22 134.05 380.32 133.36 381.2L133.29 381.3C132.43 382.4 131.12 383.05 129.72 383.13C85.63 385.53 50.71 422.39 51.47 467.25C52.25 512.61 89.97 548.64 135.34 548.64L481.21 548.64C517.63 548.64 547.98 519.67 548.46 483.26C548.94 446.26 519.09 416.11 482.2 416.11Z" />
				<path id="Layer" class="shp3" d="M482.2 416.11L482.17 416.11C480.95 416.11 479.9 415.29 479.56 414.12C471.53 386.55 446.08 366.41 415.93 366.41C412.01 366.41 408.17 366.76 404.44 367.42C429.41 371.79 449.58 390.14 456.56 414.12C456.9 415.29 457.95 416.11 459.17 416.11L459.2 416.11C496.09 416.11 525.94 446.26 525.46 483.26C524.99 519.67 494.63 548.64 458.21 548.64L481.21 548.64C517.63 548.64 547.98 519.67 548.46 483.26C548.94 446.26 519.09 416.11 482.2 416.11L482.2 416.11Z" />
			</g>
		</g>
		<g id="Layer">
			<path id="Layer" class="shp4" d="M150.4 541.14L134.32 541.14C92.79 541.14 59 507.35 59 465.81C59 424.3 92.75 390.52 134.25 390.48C134.39 390.48 134.53 390.49 134.67 390.49L134.68 390.49C176.05 390.68 209.64 424.39 209.64 465.81C209.64 469.95 213 473.31 217.14 473.31C221.28 473.31 224.64 469.95 224.64 465.81C224.64 418.54 188.14 379.63 141.85 375.79C141.84 375.43 141.82 375.06 141.82 374.69C141.82 360.55 145.41 346.58 152.21 334.29C154.22 330.66 152.9 326.1 149.28 324.09C145.65 322.09 141.09 323.4 139.09 327.03C131.06 341.53 126.82 358.02 126.82 374.69C126.82 375.06 126.82 375.42 126.83 375.79C80.52 379.61 44 418.52 44 465.81C44 515.62 84.52 556.14 134.32 556.14L150.4 556.14C154.54 556.14 157.9 552.79 157.9 548.64C157.9 544.5 154.54 541.14 150.4 541.14L150.4 541.14Z" />
			<path id="Layer" class="shp4" d="M485.68 408.69C475.55 379.11 447.65 358.91 415.91 358.91C403.49 358.91 391.47 361.98 380.7 367.86C370.19 352.14 352.29 342.34 333.09 342.34C328.35 342.34 323.69 342.92 319.16 344.06C313.23 325.94 302.01 309.69 287.02 297.68C269.63 283.75 247.75 276.08 225.42 276.08C200.98 276.08 177.54 285.08 159.4 301.44C156.33 304.21 156.08 308.96 158.86 312.03C161.63 315.11 166.38 315.35 169.45 312.58C184.82 298.71 204.7 291.08 225.42 291.08C262.35 291.08 294.33 314.86 305.18 349.6C287.42 359.51 275.9 378.44 275.9 399.54C275.9 403.69 279.25 407.04 283.4 407.04C287.54 407.04 290.9 403.69 290.9 399.54C290.9 382.3 301.33 367.03 316.87 360.58C316.89 360.57 316.84 360.59 316.87 360.58C322 358.45 327.5 357.34 333.09 357.34C349.32 357.34 364.3 366.84 371.25 381.53C372.19 383.52 373.97 385 376.1 385.57C378.24 386.14 380.51 385.74 382.32 384.47C392.22 377.56 403.83 373.91 415.91 373.91C442.76 373.91 466.16 392.05 472.83 418.03C473.7 421.43 476.77 423.76 480.32 423.66C480.32 423.66 481.72 423.61 482.17 423.61C514.56 423.61 540.92 449.97 540.92 482.38C540.92 514.78 514.56 541.14 482.17 541.14C449.77 541.14 423.41 514.78 423.41 482.38C423.41 478.23 420.05 474.88 415.91 474.88C411.77 474.88 408.41 478.23 408.41 482.38C408.41 506.34 419.9 527.66 437.65 541.14L180.4 541.14C176.25 541.14 172.9 544.5 172.9 548.64C172.9 552.79 176.25 556.14 180.4 556.14L482.16 556.14C522.83 556.14 555.92 523.05 555.92 482.38C555.92 442.88 524.72 410.54 485.68 408.69L485.68 408.69Z" />
			<path id="Layer" fill-rule="evenodd" class="shp4" d="M366.81 143.54C416.62 143.54 457.14 184.07 457.14 233.88C457.14 283.69 416.62 324.21 366.81 324.21C366.77 324.21 366.74 324.21 366.7 324.21C366.65 324.21 366.6 324.21 366.56 324.21C316.75 324.21 276.24 283.69 276.24 233.88C276.24 184.07 316.75 143.54 366.56 143.54C366.61 143.54 366.66 143.55 366.7 143.55C366.74 143.55 366.77 143.54 366.81 143.54ZM324.6 171.35C317.67 176.01 311.57 181.79 306.54 188.43C306.34 188.85 306.1 189.26 305.82 189.65C296.43 202.56 291.47 217.85 291.47 233.88C291.47 275.38 325.21 309.14 366.69 309.21C408.16 309.13 441.87 275.37 441.87 233.88C441.87 192.37 408.14 158.6 366.66 158.55C366.42 158.55 366.18 158.56 365.94 158.56C365.15 158.56 364.36 158.59 363.57 158.62C362.89 158.65 362.21 158.68 361.53 158.73C361.34 158.74 361.16 158.76 360.97 158.77C348.34 159.74 336.21 163.85 325.59 170.81C325.27 171.02 324.93 171.19 324.6 171.35Z" />
			<path id="Layer" class="shp4" d="M366.56 125.41C370.7 125.41 374.06 122.05 374.06 117.91L374.06 51.64C374.06 47.5 370.7 44.14 366.56 44.14C362.41 44.14 359.06 47.5 359.06 51.64L359.06 117.91C359.06 122.05 362.41 125.41 366.56 125.41Z" />
			<path id="Layer" class="shp4" d="M475.02 233.88C475.02 238.02 478.38 241.38 482.52 241.38L548.79 241.38C552.93 241.38 556.29 238.02 556.29 233.88C556.29 229.74 552.93 226.38 548.79 226.38L482.52 226.38C478.38 226.38 475.02 229.74 475.02 233.88Z" />
			<path id="Layer" class="shp4" d="M184.32 241.38L250.59 241.38C254.73 241.38 258.09 238.02 258.09 233.88C258.09 229.74 254.73 226.38 250.59 226.38L184.32 226.38C180.18 226.38 176.82 229.74 176.82 233.88C176.82 238.02 180.18 241.38 184.32 241.38Z" />
			<path id="Layer" class="shp4" d="M448.56 159.38C450.47 159.38 452.39 158.64 453.86 157.18L500.72 110.32C503.65 107.39 503.65 102.64 500.72 99.72C497.79 96.79 493.04 96.79 490.11 99.72L443.25 146.57C440.32 149.5 440.32 154.25 443.25 157.18C444.72 158.64 446.64 159.38 448.56 159.38L448.56 159.38Z" />
			<path id="Layer" class="shp4" d="M490.11 368.04C491.57 369.5 493.49 370.24 495.41 370.24C497.33 370.24 499.25 369.5 500.72 368.04C503.65 365.11 503.65 360.36 500.72 357.43L453.86 310.57C450.93 307.65 446.18 307.65 443.25 310.57C440.32 313.5 440.32 318.25 443.25 321.18L490.11 368.04Z" />
			<path id="Layer" class="shp4" d="M279.25 157.18C280.72 158.64 282.63 159.38 284.55 159.38C286.47 159.38 288.39 158.65 289.86 157.18C292.79 154.25 292.79 149.5 289.86 146.57L243 99.72C240.07 96.79 235.32 96.79 232.39 99.72C229.46 102.65 229.46 107.39 232.39 110.32L279.25 157.18Z" />
			<path id="Layer" class="shp4" d="M315.25 129.61C316.44 132.5 319.24 134.24 322.18 134.24C323.14 134.24 324.11 134.06 325.05 133.67C328.87 132.08 330.69 127.69 329.11 123.87L316.43 93.26C314.84 89.43 310.45 87.61 306.63 89.2C302.8 90.78 300.98 95.17 302.57 99L315.25 129.61Z" />
			<path id="Layer" class="shp4" d="M225.93 183.75L256.54 196.43C257.48 196.82 258.45 197 259.41 197C262.36 197 265.15 195.26 266.34 192.37C267.93 188.54 266.11 184.16 262.28 182.57L231.67 169.89C227.85 168.31 223.46 170.12 221.87 173.95C220.29 177.78 222.11 182.16 225.93 183.75L225.93 183.75Z" />
			<path id="Layer" class="shp4" d="M511.23 293.81C512.82 289.98 511 285.59 507.17 284.01L476.56 271.33C472.74 269.74 468.35 271.56 466.76 275.39C465.18 279.21 467 283.6 470.82 285.19L501.43 297.87C502.37 298.25 503.34 298.44 504.3 298.44C507.25 298.44 510.04 296.69 511.23 293.81L511.23 293.81Z" />
			<path id="Layer" class="shp4" d="M470.82 182.57C467 184.16 465.18 188.54 466.76 192.37C467.96 195.26 470.75 197 473.7 197C474.65 197 475.62 196.82 476.56 196.43L507.17 183.75C511 182.16 512.82 177.77 511.23 173.95C509.65 170.12 505.26 168.3 501.43 169.89L470.82 182.57Z" />
			<path id="Layer" class="shp4" d="M408.06 133.67C409 134.06 409.97 134.24 410.93 134.24C413.87 134.24 416.66 132.5 417.86 129.61L430.54 99C432.13 95.17 430.31 90.78 426.48 89.2C422.66 87.61 418.27 89.43 416.68 93.26L404 123.87C402.42 127.69 404.24 132.08 408.06 133.67L408.06 133.67Z" />
		</g>
	</g>
</svg>