<svg xmlns="http://www.w3.org/2000/svg" viewBox="0 0 600 600" width="600" height="600">
	<style>
		tspan { white-space:pre }
		.shp0 { fill: #ddeafb } 
		.shp1 { fill: #bed8fb } 
		.shp2 { fill: #ecf4ff } 
		.shp3 { fill: #000000 } 
	</style>
	<g id="Layer">
		<g id="Layer">
			<path id="Layer" class="shp0" d="M341.42 184.03C317.62 184.03 298.52 163.61 300.24 139.47C301.65 119.65 317.34 103.44 337.11 101.42C339.89 101.13 342.62 101.13 345.28 101.38C348.91 101.72 352.25 99.42 353.44 95.98C362.37 70.1 386.92 51.5 415.84 51.5C437.53 51.5 456.77 61.97 468.8 78.13C471.87 82.25 476.65 84.67 481.79 84.63C481.89 84.63 482 84.63 482.1 84.63C509.84 84.63 532.26 107.35 531.8 135.18C531.34 162.43 508.54 184.03 481.29 184.03L341.42 184.03L341.42 184.03Z" />
			<path id="Layer" class="shp1" d="M482.1 84.63C482 84.63 481.89 84.63 481.79 84.63C476.65 84.67 471.87 82.25 468.8 78.13C456.77 61.97 437.53 51.5 415.84 51.5C411.92 51.5 408.09 51.85 404.36 52.51C421.26 55.48 435.95 64.9 445.8 78.13C448.87 82.25 453.65 84.67 458.79 84.63C458.89 84.63 459 84.63 459.1 84.63C486.83 84.63 509.26 107.34 508.8 135.18C508.34 162.43 485.54 184.03 458.28 184.03L481.28 184.03C508.54 184.03 531.34 162.43 531.8 135.18C532.26 107.35 509.83 84.63 482.1 84.63L482.1 84.63Z" />
			<g id="Layer">
				<g id="Layer">
					<path id="Layer" class="shp2" d="M482.23 217.17L482.21 217.17C480.99 217.17 479.94 216.35 479.6 215.17C471.57 187.61 446.12 167.47 415.97 167.47C404.69 167.47 394.08 170.29 384.79 175.26C381.15 177.21 376.62 176.19 374.31 172.77C365.38 159.58 350.27 150.9 333.13 150.9C329.13 150.9 325.23 151.38 321.5 152.27C317.46 153.25 313.28 151.07 311.97 147.13C299.97 110.83 265.77 84.63 225.45 84.63C175.13 84.63 134.33 125.43 134.33 175.75C134.33 176.89 134.36 178.03 134.41 179.16C134.46 180.28 134.09 181.38 133.4 182.26L133.33 182.35C132.47 183.46 131.16 184.11 129.76 184.19C85.67 186.59 50.75 223.44 51.51 268.31C52.28 313.66 90.01 349.7 135.37 349.7L481.25 349.7C517.66 349.7 548.02 320.73 548.49 284.31C548.97 247.31 519.12 217.17 482.23 217.17L482.23 217.17Z" />
					<path id="Layer" class="shp2" d="M482.23 217.17L482.21 217.17C480.99 217.17 479.94 216.35 479.6 215.17C471.57 187.61 446.12 167.47 415.97 167.47C404.69 167.47 394.08 170.29 384.79 175.26C381.15 177.21 376.62 176.19 374.31 172.77C365.38 159.58 350.27 150.9 333.13 150.9C329.13 150.9 325.23 151.38 321.5 152.27C317.46 153.25 313.28 151.07 311.97 147.13C299.97 110.83 265.77 84.63 225.45 84.63C175.13 84.63 134.33 125.43 134.33 175.75C134.33 176.89 134.36 178.03 134.41 179.16C134.46 180.28 134.09 181.38 133.4 182.26L133.33 182.35C132.47 183.46 131.16 184.11 129.76 184.19C85.67 186.59 50.75 223.44 51.51 268.31C52.28 313.66 90.01 349.7 135.37 349.7L481.25 349.7C517.66 349.7 548.02 320.73 548.49 284.31C548.97 247.31 519.12 217.17 482.23 217.17L482.23 217.17Z" />
					<path id="Layer" class="shp0" d="M482.23 217.17L482.21 217.17C480.99 217.17 479.94 216.35 479.6 215.17C471.57 187.61 446.12 167.47 415.97 167.47C412.05 167.47 408.21 167.82 404.47 168.47C429.45 172.85 449.62 191.2 456.6 215.17C456.94 216.35 457.99 217.17 459.21 217.17L459.23 217.17C496.12 217.17 525.97 247.31 525.49 284.31C525.02 320.73 494.67 349.7 458.25 349.7L481.25 349.7C517.66 349.7 548.02 320.73 548.49 284.31C548.97 247.31 519.12 217.17 482.23 217.17L482.23 217.17Z" />
				</g>
			</g>
		</g>
		<g id="Layer">
			<path id="Layer" class="shp3" d="M150.43 342.2L134.33 342.2C92.79 342.2 59 308.41 59 266.87C59 225.35 92.75 191.57 134.26 191.53C134.41 191.54 134.56 191.54 134.71 191.54L134.72 191.54C176.08 191.75 209.67 225.46 209.67 266.87C209.67 271.01 213.03 274.37 217.17 274.37C221.31 274.37 224.67 271.01 224.67 266.87C224.67 219.59 188.16 180.69 141.86 176.85C141.86 176.48 141.83 176.11 141.83 175.75C141.83 158.66 146.95 142.24 156.63 128.24C158.99 124.84 158.14 120.16 154.73 117.81C151.32 115.45 146.65 116.3 144.3 119.71C132.87 136.22 126.83 155.6 126.83 175.75C126.83 176.11 126.83 176.48 126.84 176.84C80.52 180.66 44 219.58 44 266.87C44 316.68 84.52 357.2 134.33 357.2L150.43 357.2C154.57 357.2 157.93 353.84 157.93 349.7C157.93 345.56 154.58 342.2 150.43 342.2L150.43 342.2Z" />
			<path id="Layer" fill-rule="evenodd" class="shp3" d="M485.75 209.75C524.8 211.59 556 243.93 556 283.43C556 324.11 522.91 357.2 482.23 357.2L180.82 357.2C176.68 357.2 173.32 353.84 173.32 349.7C173.32 345.56 176.68 342.2 180.82 342.2L437.71 342.2C419.96 328.72 408.47 307.4 408.47 283.43C408.47 279.29 411.82 275.93 415.97 275.93C420.11 275.93 423.47 279.29 423.47 283.43C423.47 315.84 449.83 342.2 482.23 342.2C514.64 342.2 541 315.84 541 283.43C541 251.03 514.64 224.67 482.23 224.67C481.79 224.67 480.39 224.72 480.39 224.72C476.84 224.82 473.77 222.48 472.89 219.08C466.23 193.11 442.82 174.97 415.97 174.97C403.88 174.97 392.27 178.62 382.37 185.53C380.56 186.79 378.29 187.19 376.15 186.63C374.02 186.06 372.24 184.58 371.3 182.59C364.35 167.89 349.37 158.4 333.13 158.4C327.55 158.4 322.11 159.48 316.98 161.61C316.96 161.62 316.94 161.62 316.91 161.63C301.36 168.08 290.93 183.36 290.93 200.6C290.93 204.74 287.57 208.1 283.43 208.1C279.29 208.1 275.93 204.74 275.93 200.6C275.93 179.5 287.46 160.57 305.22 150.65C294.37 115.91 262.39 92.13 225.45 92.13C207.4 92.13 190.22 97.79 175.76 108.49C172.43 110.96 167.73 110.26 165.26 106.93C162.8 103.6 163.5 98.9 166.83 96.44C183.89 83.81 204.16 77.13 225.45 77.13C247.78 77.13 269.66 84.81 287.05 98.74C292.63 103.2 297.67 108.26 302.13 113.77C311.19 101.42 325.82 93.7 341.55 93.7C343.15 93.7 344.74 93.78 346.33 93.93C356.31 64.21 384.01 44 415.97 44C440.86 44 464 56.65 477.52 77.33C479.1 77.2 480.67 77.13 482.23 77.13C513.77 77.13 539.43 102.79 539.43 134.33C539.43 165.87 513.77 191.53 482.23 191.53L476.5 191.52C480.36 197.06 483.49 203.17 485.75 209.75ZM380.75 168.92C391.52 163.04 403.55 159.97 415.97 159.97C433.42 159.97 449.7 166.08 462.51 176.49L482.25 176.53C505.5 176.53 524.43 157.6 524.43 134.33C524.43 111.06 505.5 92.13 482.23 92.13C479.83 92.13 477.37 92.34 474.91 92.76C454.7 96.29 440.03 113.78 440.03 134.33C440.03 138.48 436.68 141.83 432.53 141.83C428.39 141.83 425.03 138.48 425.03 134.33C425.03 110.25 439.9 89.29 461.64 80.95C450.63 67.22 433.87 59 415.97 59C388.63 59 365.21 77.57 359.01 104.17C358.55 106.13 357.32 107.82 355.6 108.87C353.88 109.92 351.81 110.23 349.86 109.73C347.15 109.05 344.36 108.7 341.55 108.7C328.75 108.7 317.02 116.08 311.35 127.36C314.53 133 317.18 138.95 319.2 145.11C323.73 143.97 328.39 143.4 333.13 143.4C352.34 143.4 370.24 153.19 380.75 168.92Z" />
			<path id="Layer" class="shp3" d="M84.63 375.33C80.49 375.33 77.13 378.69 77.13 382.83L77.13 449.1C77.13 453.24 80.49 456.6 84.63 456.6C88.78 456.6 92.13 453.24 92.13 449.1L92.13 382.83C92.13 378.69 88.78 375.33 84.63 375.33Z" />
			<path id="Layer" class="shp3" d="M192.32 375.33C188.18 375.33 184.82 378.69 184.82 382.83L184.82 449.1C184.82 453.24 188.18 456.6 192.32 456.6C196.46 456.6 199.82 453.24 199.82 449.1L199.82 382.83C199.82 378.69 196.46 375.33 192.32 375.33Z" />
			<path id="Layer" class="shp3" d="M138.47 474.73C134.33 474.73 130.97 478.09 130.97 482.23L130.97 548.5C130.97 552.64 134.33 556 138.47 556C142.62 556 145.97 552.64 145.97 548.5L145.97 482.23C145.97 478.09 142.62 474.73 138.47 474.73Z" />
			<path id="Layer" class="shp3" d="M246.16 474.73C242.02 474.73 238.66 478.09 238.66 482.23L238.66 548.5C238.66 552.64 242.02 556 246.16 556C250.3 556 253.66 552.64 253.66 548.5L253.66 482.23C253.66 478.09 250.3 474.73 246.16 474.73Z" />
			<path id="Layer" class="shp3" d="M353.84 474.73C349.7 474.73 346.34 478.09 346.34 482.23L346.34 548.5C346.34 552.64 349.7 556 353.84 556C357.98 556 361.34 552.64 361.34 548.5L361.34 482.23C361.34 478.09 357.98 474.73 353.84 474.73Z" />
			<path id="Layer" class="shp3" d="M300 375.33C295.86 375.33 292.5 378.69 292.5 382.83L292.5 449.1C292.5 453.24 295.86 456.6 300 456.6C304.14 456.6 307.5 453.24 307.5 449.1L307.5 382.83C307.5 378.69 304.14 375.33 300 375.33Z" />
			<path id="Layer" class="shp3" d="M407.68 375.33C403.54 375.33 400.18 378.69 400.18 382.83L400.18 449.1C400.18 453.24 403.54 456.6 407.68 456.6C411.83 456.6 415.18 453.24 415.18 449.1L415.18 382.83C415.18 378.69 411.83 375.33 407.68 375.33Z" />
			<path id="Layer" class="shp3" d="M515.37 375.33C511.22 375.33 507.87 378.69 507.87 382.83L507.87 449.1C507.87 453.24 511.22 456.6 515.37 456.6C519.51 456.6 522.87 453.24 522.87 449.1L522.87 382.83C522.87 378.69 519.51 375.33 515.37 375.33Z" />
			<path id="Layer" class="shp3" d="M461.52 474.73C457.38 474.73 454.02 478.09 454.02 482.23L454.02 548.5C454.02 552.64 457.38 556 461.52 556C465.67 556 469.02 552.64 469.02 548.5L469.02 482.23C469.02 478.09 465.67 474.73 461.52 474.73Z" />
		</g>
	</g>
</svg>