<svg xmlns="http://www.w3.org/2000/svg" viewBox="0 0 600 600" width="600" height="600">
	<style>
		tspan { white-space:pre }
		.shp0 { fill: #ecf4ff } 
		.shp1 { fill: #ddeafb } 
		.shp2 { fill: #000000 } 
	</style>
	<g id="Layer">
		<g id="Layer">
			<g id="Layer">
				<path id="Layer" class="shp0" d="M483.2 300.11L483.17 300.11C481.95 300.11 480.9 299.29 480.56 298.12C472.53 270.55 447.08 250.41 416.93 250.41C405.65 250.41 395.04 253.24 385.75 258.21C382.11 260.15 377.59 259.14 375.27 255.72C366.34 242.52 351.23 233.84 334.1 233.84C330.09 233.84 326.19 234.32 322.46 235.22C318.42 236.19 314.24 234.02 312.94 230.07C300.93 193.77 266.74 167.58 226.41 167.58C176.09 167.58 135.3 208.37 135.3 258.69C135.3 259.84 135.32 260.97 135.37 262.1C135.42 263.22 135.05 264.32 134.36 265.2L134.29 265.3C133.43 266.4 132.12 267.05 130.72 267.13C86.63 269.53 51.71 306.39 52.47 351.25C53.25 396.61 90.98 432.64 136.34 432.64L482.21 432.64C518.63 432.64 548.98 403.67 549.46 367.26C549.94 330.26 520.09 300.11 483.2 300.11Z" />
				<path id="Layer" class="shp0" d="M483.2 300.11L483.17 300.11C481.95 300.11 480.9 299.29 480.56 298.12C472.53 270.55 447.08 250.41 416.93 250.41C405.65 250.41 395.04 253.24 385.75 258.21C382.11 260.15 377.59 259.14 375.27 255.72C366.34 242.52 351.23 233.84 334.1 233.84C330.09 233.84 326.19 234.32 322.46 235.22C318.42 236.19 314.24 234.02 312.94 230.07C300.94 193.77 266.74 167.58 226.41 167.58C176.09 167.58 135.3 208.37 135.3 258.69C135.3 259.84 135.32 260.97 135.37 262.1C135.42 263.22 135.05 264.32 134.36 265.2L134.29 265.3C133.43 266.4 132.12 267.05 130.72 267.13C86.63 269.53 51.71 306.39 52.47 351.25C53.25 396.61 90.98 432.64 136.34 432.64L482.21 432.64C518.63 432.64 548.98 403.67 549.46 367.26C549.94 330.26 520.09 300.11 483.2 300.11Z" />
				<path id="Layer" class="shp1" d="M483.2 300.11L483.17 300.11C481.95 300.11 480.9 299.29 480.56 298.12C472.53 270.55 447.08 250.41 416.93 250.41C413.01 250.41 409.17 250.76 405.44 251.42C430.41 255.79 450.58 274.14 457.56 298.12C457.9 299.29 458.95 300.11 460.17 300.11L460.2 300.11C497.09 300.11 526.94 330.26 526.46 367.26C525.99 403.67 495.63 432.64 459.21 432.64L482.21 432.64C518.63 432.64 548.98 403.67 549.46 367.26C549.94 330.26 520.09 300.11 483.2 300.11L483.2 300.11Z" />
			</g>
		</g>
		<g id="Layer">
			<path id="Layer" class="shp2" d="M151.4 425.14L135.32 425.14C93.79 425.14 60 391.35 60 349.81C60 308.3 93.75 274.52 135.25 274.48C135.39 274.48 135.53 274.49 135.67 274.49L135.68 274.49C177.05 274.68 210.64 308.39 210.64 349.81C210.64 353.95 214 357.31 218.14 357.31C222.28 357.31 225.64 353.95 225.64 349.81C225.64 302.54 189.14 263.63 142.85 259.79C142.84 259.43 142.82 259.06 142.82 258.69C142.82 244.55 146.41 230.58 153.21 218.29C155.22 214.66 153.9 210.1 150.28 208.09C146.65 206.09 142.09 207.4 140.09 211.03C132.06 225.53 127.82 242.02 127.82 258.69C127.82 259.06 127.82 259.42 127.83 259.79C81.52 263.61 45 302.52 45 349.81C45 399.62 85.52 440.14 135.32 440.14L151.4 440.14C155.54 440.14 158.9 436.79 158.9 432.64C158.9 428.5 155.54 425.14 151.4 425.14L151.4 425.14Z" />
			<path id="Layer" class="shp2" d="M486.68 292.69C476.55 263.11 448.65 242.91 416.91 242.91C404.49 242.91 392.47 245.98 381.7 251.86C371.19 236.14 353.29 226.34 334.09 226.34C329.35 226.34 324.69 226.92 320.16 228.06C314.23 209.94 303.01 193.69 288.02 181.68C270.63 167.75 248.75 160.08 226.42 160.08C201.98 160.08 178.54 169.08 160.4 185.44C157.33 188.21 157.08 192.96 159.86 196.03C162.63 199.11 167.38 199.35 170.45 196.58C185.82 182.71 205.7 175.08 226.42 175.08C263.35 175.08 295.33 198.86 306.18 233.6C288.42 243.51 276.9 262.44 276.9 283.54C276.9 287.69 280.25 291.04 284.4 291.04C288.54 291.04 291.9 287.69 291.9 283.54C291.9 266.3 302.33 251.03 317.87 244.58C317.89 244.57 317.84 244.59 317.87 244.58C323 242.45 328.5 241.34 334.09 241.34C350.32 241.34 365.3 250.84 372.25 265.53C373.19 267.52 374.97 269 377.1 269.57C379.24 270.14 381.51 269.74 383.32 268.47C393.22 261.56 404.83 257.91 416.91 257.91C443.76 257.91 467.16 276.05 473.83 302.03C474.7 305.43 477.77 307.76 481.32 307.66C481.32 307.66 482.72 307.61 483.17 307.61C515.56 307.61 541.92 333.97 541.92 366.38C541.92 398.78 515.56 425.14 483.17 425.14C450.77 425.14 424.41 398.78 424.41 366.38C424.41 362.23 421.05 358.88 416.91 358.88C412.77 358.88 409.41 362.23 409.41 366.38C409.41 390.34 420.9 411.66 438.65 425.14L181.4 425.14C177.25 425.14 173.9 428.5 173.9 432.64C173.9 436.79 177.25 440.14 181.4 440.14L483.16 440.14C523.83 440.14 556.92 407.05 556.92 366.38C556.92 326.88 525.72 294.54 486.68 292.69L486.68 292.69Z" />
		</g>
	</g>
</svg>