<svg xmlns="http://www.w3.org/2000/svg" viewBox="0 0 513 280" width="513" height="280">
	<style>
		tspan { white-space:pre }
		.shp0 { fill: #ecf4ff } 
		.shp1 { fill: #ddeafb } 
		.shp2 { fill: #000000 } 
	</style>
	<g id="Layer">
		<g id="Layer">
			<g id="Layer">
				<path id="Layer" class="shp0" d="M439.2 140.11L439.17 140.11C437.95 140.11 436.9 139.29 436.56 138.12C428.53 110.55 403.08 90.41 372.93 90.41C361.65 90.41 351.04 93.24 341.75 98.21C338.11 100.15 333.59 99.14 331.27 95.72C322.34 82.52 307.23 73.84 290.1 73.84C286.09 73.84 282.19 74.32 278.46 75.22C274.42 76.19 270.24 74.02 268.94 70.07C256.93 33.77 222.74 7.58 182.41 7.58C132.09 7.58 91.3 48.37 91.3 98.69C91.3 99.84 91.32 100.97 91.37 102.1C91.42 103.22 91.05 104.32 90.36 105.2L90.29 105.3C89.43 106.4 88.12 107.05 86.72 107.13C42.63 109.53 7.71 146.39 8.47 191.25C9.25 236.61 46.98 272.64 92.34 272.64L438.21 272.64C474.63 272.64 504.98 243.67 505.46 207.26C505.94 170.26 476.09 140.11 439.2 140.11Z" />
				<path id="Layer" class="shp0" d="M439.2 140.11L439.17 140.11C437.95 140.11 436.9 139.29 436.56 138.12C428.53 110.55 403.08 90.41 372.93 90.41C361.65 90.41 351.04 93.24 341.75 98.21C338.11 100.15 333.59 99.14 331.27 95.72C322.34 82.52 307.23 73.84 290.1 73.84C286.09 73.84 282.19 74.32 278.46 75.22C274.42 76.19 270.24 74.02 268.94 70.07C256.94 33.77 222.74 7.58 182.41 7.58C132.09 7.58 91.3 48.37 91.3 98.69C91.3 99.84 91.32 100.97 91.37 102.1C91.42 103.22 91.05 104.32 90.36 105.2L90.29 105.3C89.43 106.4 88.12 107.05 86.72 107.13C42.63 109.53 7.71 146.39 8.47 191.25C9.25 236.61 46.98 272.64 92.34 272.64L438.21 272.64C474.63 272.64 504.98 243.67 505.46 207.26C505.94 170.26 476.09 140.11 439.2 140.11Z" />
				<path id="Layer" class="shp1" d="M439.2 140.11L439.17 140.11C437.95 140.11 436.9 139.29 436.56 138.12C428.53 110.55 403.08 90.41 372.93 90.41C369.01 90.41 365.17 90.76 361.44 91.42C386.41 95.79 406.58 114.14 413.56 138.12C413.9 139.29 414.95 140.11 416.17 140.11L416.2 140.11C453.09 140.11 482.94 170.26 482.46 207.26C481.99 243.67 451.63 272.64 415.21 272.64L438.21 272.64C474.63 272.64 504.98 243.67 505.46 207.26C505.94 170.26 476.09 140.11 439.2 140.11L439.2 140.11Z" />
			</g>
		</g>
		<g id="Layer">
			<path id="Layer" class="shp2" d="M107.4 265.14L91.32 265.14C49.79 265.14 16 231.35 16 189.81C16 148.3 49.75 114.52 91.25 114.48C91.39 114.48 91.53 114.49 91.67 114.49L91.68 114.49C133.05 114.68 166.64 148.39 166.64 189.81C166.64 193.95 170 197.31 174.14 197.31C178.28 197.31 181.64 193.95 181.64 189.81C181.64 142.54 145.14 103.63 98.85 99.79C98.84 99.43 98.82 99.06 98.82 98.69C98.82 84.55 102.41 70.58 109.21 58.29C111.22 54.66 109.9 50.1 106.28 48.09C102.65 46.09 98.09 47.4 96.09 51.03C88.06 65.53 83.82 82.02 83.82 98.69C83.82 99.06 83.82 99.42 83.83 99.79C37.52 103.61 1 142.52 1 189.81C1 239.62 41.52 280.14 91.32 280.14L107.4 280.14C111.54 280.14 114.9 276.79 114.9 272.64C114.9 268.5 111.54 265.14 107.4 265.14L107.4 265.14Z" />
			<path id="Layer" class="shp2" d="M442.68 132.69C432.55 103.11 404.65 82.91 372.91 82.91C360.49 82.91 348.47 85.98 337.7 91.86C327.19 76.14 309.29 66.34 290.09 66.34C285.35 66.34 280.69 66.92 276.16 68.06C270.23 49.94 259.01 33.69 244.02 21.68C226.63 7.75 204.75 0.08 182.42 0.08C157.98 0.08 134.54 9.08 116.4 25.44C113.33 28.21 113.08 32.96 115.86 36.03C118.63 39.11 123.38 39.35 126.45 36.58C141.82 22.71 161.7 15.08 182.42 15.08C219.35 15.08 251.33 38.86 262.18 73.6C244.42 83.51 232.9 102.44 232.9 123.54C232.9 127.69 236.25 131.04 240.4 131.04C244.54 131.04 247.9 127.69 247.9 123.54C247.9 106.3 258.33 91.03 273.87 84.58C273.89 84.57 273.84 84.59 273.87 84.58C279 82.45 284.5 81.34 290.09 81.34C306.32 81.34 321.3 90.84 328.25 105.53C329.19 107.52 330.97 109 333.1 109.57C335.24 110.14 337.51 109.74 339.32 108.47C349.22 101.56 360.83 97.91 372.91 97.91C399.76 97.91 423.16 116.05 429.83 142.03C430.7 145.43 433.77 147.76 437.32 147.66C437.32 147.66 438.72 147.61 439.17 147.61C471.56 147.61 497.92 173.97 497.92 206.38C497.92 238.78 471.56 265.14 439.17 265.14C406.77 265.14 380.41 238.78 380.41 206.38C380.41 202.23 377.05 198.88 372.91 198.88C368.77 198.88 365.41 202.23 365.41 206.38C365.41 230.34 376.9 251.66 394.65 265.14L137.4 265.14C133.25 265.14 129.9 268.5 129.9 272.64C129.9 276.79 133.25 280.14 137.4 280.14L439.16 280.14C479.83 280.14 512.92 247.05 512.92 206.38C512.92 166.88 481.72 134.54 442.68 132.69L442.68 132.69Z" />
		</g>
	</g>
</svg>