<svg xmlns="http://www.w3.org/2000/svg" viewBox="0 0 600 600" width="600" height="600">
	<style>
		tspan { white-space:pre }
		.shp0 { fill: #ecf4ff } 
		.shp1 { fill: #ddeafb } 
		.shp2 { fill: #000000 } 
	</style>
	<g id="Layer">
		<g id="Layer">
			<g id="Layer">
				<path id="Layer" class="shp0" d="M481.53 183.38L481.51 183.38C480.29 183.38 479.23 182.56 478.89 181.38C470.87 153.82 445.42 133.68 415.26 133.68C403.99 133.68 393.38 136.5 384.08 141.47C380.44 143.42 375.92 142.4 373.61 138.98C364.67 125.79 349.57 117.11 332.43 117.11C328.42 117.11 324.53 117.59 320.79 118.48C316.75 119.46 312.58 117.28 311.27 113.34C299.27 77.04 265.07 50.84 224.75 50.84C174.42 50.84 133.63 91.64 133.63 141.96C133.63 143.1 133.66 144.24 133.71 145.37C133.75 146.49 133.39 147.59 132.7 148.47L132.63 148.56C131.76 149.67 130.46 150.32 129.06 150.4C84.97 152.8 50.05 189.66 50.81 234.52C51.58 279.87 89.31 315.91 134.67 315.91L480.54 315.91C516.96 315.91 547.32 286.94 547.79 250.52C548.27 213.52 518.42 183.38 481.53 183.38Z" />
				<path id="Layer" class="shp0" d="M481.53 183.38L481.51 183.38C480.29 183.38 479.23 182.56 478.89 181.38C470.87 153.82 445.42 133.68 415.26 133.68C403.99 133.68 393.38 136.5 384.08 141.47C380.44 143.42 375.92 142.4 373.61 138.98C364.67 125.79 349.57 117.11 332.43 117.11C328.42 117.11 324.53 117.59 320.79 118.48C316.75 119.46 312.58 117.28 311.27 113.34C299.27 77.04 265.07 50.84 224.75 50.84C174.42 50.84 133.63 91.64 133.63 141.96C133.63 143.1 133.66 144.24 133.71 145.37C133.75 146.49 133.39 147.59 132.7 148.47L132.63 148.56C131.76 149.67 130.46 150.32 129.06 150.4C84.97 152.8 50.05 189.66 50.81 234.52C51.58 279.87 89.31 315.91 134.67 315.91L480.54 315.91C516.96 315.91 547.32 286.94 547.79 250.52C548.27 213.52 518.42 183.38 481.53 183.38Z" />
				<path id="Layer" class="shp1" d="M481.53 183.38L481.51 183.38C480.29 183.38 479.23 182.56 478.89 181.38C470.87 153.82 445.42 133.68 415.26 133.68C411.34 133.68 407.5 134.03 403.77 134.68C428.75 139.06 448.91 157.41 455.89 181.38C456.23 182.56 457.29 183.38 458.51 183.38L458.53 183.38C495.42 183.38 525.27 213.52 524.79 250.52C524.32 286.94 493.96 315.91 457.54 315.91L480.54 315.91C516.96 315.91 547.32 286.94 547.79 250.52C548.27 213.52 518.42 183.38 481.53 183.38Z" />
			</g>
		</g>
		<g id="Layer">
			<path id="Layer" class="shp2" d="M199.9 407.81L182.37 407.81L189.19 399.29C191.77 396.05 191.25 391.33 188.02 388.75C184.78 386.16 180.06 386.68 177.47 389.92L163.16 407.81L141.13 407.81L141.13 385.78L159.02 371.47C162.26 368.88 162.78 364.16 160.2 360.93C157.61 357.69 152.89 357.17 149.65 359.75L141.13 366.57L141.13 349.04C141.13 344.9 137.77 341.54 133.63 341.54C129.49 341.54 126.13 344.9 126.13 349.04L126.13 366.57L117.61 359.75C114.37 357.17 109.65 357.69 107.07 360.93C104.48 364.16 105 368.88 108.24 371.47L126.13 385.78L126.13 407.81L104.1 407.81L89.79 389.92C87.2 386.68 82.48 386.16 79.24 388.75C76.01 391.33 75.49 396.05 78.07 399.29L84.89 407.81L67.36 407.81C63.22 407.81 59.86 411.17 59.86 415.31C59.86 419.45 63.22 422.81 67.36 422.81L84.89 422.81L78.07 431.33C75.49 434.57 76.01 439.29 79.24 441.87C80.63 442.98 82.28 443.52 83.92 443.52C86.12 443.52 88.3 442.55 89.79 440.7L104.1 422.81L126.13 422.81L126.13 444.84L108.24 459.15C105 461.74 104.48 466.46 107.07 469.7C108.55 471.55 110.73 472.51 112.93 472.51C114.57 472.51 116.22 471.97 117.61 470.87L126.13 464.05L126.13 481.58C126.13 485.72 129.49 489.08 133.63 489.08C137.77 489.08 141.13 485.72 141.13 481.58L141.13 464.05L149.65 470.87C152.89 473.45 157.61 472.93 160.19 469.7C162.78 466.46 162.26 461.74 159.02 459.15L141.13 444.84L141.13 422.81L163.16 422.81L177.47 440.7C178.95 442.56 181.13 443.52 183.33 443.52C184.98 443.52 186.63 442.98 188.01 441.88C191.25 439.29 191.77 434.57 189.19 431.33L182.37 422.81L199.9 422.81C204.04 422.81 207.4 419.45 207.4 415.31C207.4 411.17 204.04 407.81 199.9 407.81L199.9 407.81Z" />
			<path id="Layer" class="shp2" d="M531.23 407.81L513.7 407.81L520.52 399.29C523.11 396.05 522.58 391.33 519.35 388.75C516.11 386.16 511.39 386.68 508.81 389.92L494.49 407.81L472.46 407.81L472.46 385.78L490.36 371.47C493.59 368.88 494.12 364.16 491.53 360.93C488.94 357.69 484.22 357.17 480.99 359.75L472.46 366.57L472.46 349.04C472.46 344.9 469.1 341.54 464.96 341.54C460.82 341.54 457.46 344.9 457.46 349.04L457.46 366.57L448.94 359.75C445.71 357.17 440.98 357.69 438.4 360.93C435.81 364.16 436.33 368.88 439.57 371.47L457.46 385.78L457.46 407.81L435.43 407.81L421.12 389.92C418.53 386.68 413.81 386.16 410.58 388.75C407.34 391.33 406.82 396.05 409.4 399.29L416.22 407.81L398.69 407.81C394.55 407.81 391.19 411.17 391.19 415.31C391.19 419.45 394.55 422.81 398.69 422.81L416.22 422.81L409.4 431.33C406.82 434.57 407.34 439.29 410.58 441.87C411.96 442.98 413.61 443.52 415.26 443.52C417.46 443.52 419.64 442.55 421.12 440.7L435.43 422.81L457.46 422.81L457.46 444.84L439.57 459.15C436.33 461.74 435.81 466.46 438.4 469.7C440.98 472.93 445.7 473.45 448.94 470.87L457.46 464.05L457.46 481.58C457.46 485.72 460.82 489.08 464.96 489.08C469.1 489.08 472.46 485.72 472.46 481.58L472.46 464.05L480.98 470.87C482.37 471.97 484.02 472.51 485.66 472.51C487.86 472.51 490.04 471.55 491.52 469.7C494.11 466.46 493.59 461.74 490.35 459.15L472.46 444.84L472.46 422.81L494.49 422.81L508.8 440.7C510.29 442.56 512.47 443.52 514.66 443.52C516.31 443.52 517.96 442.98 519.35 441.88C522.58 439.29 523.1 434.57 520.52 431.33L513.7 422.81L531.23 422.81C535.37 422.81 538.73 419.45 538.73 415.31C538.73 411.17 535.37 407.81 531.23 407.81Z" />
			<path id="Layer" class="shp2" d="M349 490.64L339.75 490.64L342.43 487.3C345.02 484.06 344.49 479.34 341.26 476.75C338.02 474.17 333.3 474.69 330.72 477.93L320.54 490.64L306.8 490.64L306.8 476.9L319.51 466.72C322.75 464.14 323.27 459.42 320.68 456.18C318.1 452.95 313.38 452.42 310.14 455.01L306.8 457.69L306.8 448.44C306.8 444.3 303.44 440.94 299.3 440.94C295.15 440.94 291.8 444.3 291.8 448.44L291.8 457.69L288.45 455.01C285.22 452.42 280.5 452.95 277.91 456.18C275.32 459.42 275.85 464.14 279.08 466.72L291.8 476.9L291.8 490.64L278.05 490.64L267.88 477.93C265.29 474.69 260.57 474.17 257.34 476.75C254.1 479.34 253.58 484.06 256.17 487.3L258.84 490.64L249.6 490.64C245.45 490.64 242.1 494 242.1 498.14C242.1 502.29 245.45 505.64 249.6 505.64L258.84 505.64L256.17 508.99C253.58 512.22 254.1 516.94 257.34 519.53C258.72 520.64 260.37 521.17 262.02 521.17C264.22 521.17 266.4 520.21 267.88 518.36L278.05 505.64L291.8 505.64L291.8 519.39L279.08 529.56C275.84 532.15 275.32 536.87 277.91 540.1C280.5 543.34 285.22 543.86 288.45 541.27L291.8 538.6L291.8 547.84C291.8 551.99 295.15 555.34 299.3 555.34C303.44 555.34 306.8 551.99 306.8 547.84L306.8 538.6L310.14 541.27C311.53 542.38 313.18 542.92 314.82 542.92C317.02 542.92 319.2 541.96 320.68 540.1C323.27 536.87 322.75 532.15 319.51 529.56L306.8 519.39L306.8 505.64L320.54 505.64L330.71 518.36C332.2 520.21 334.38 521.17 336.58 521.17C338.22 521.17 339.87 520.64 341.26 519.53C344.49 516.94 345.01 512.22 342.43 508.99L339.75 505.64L349 505.64C353.14 505.64 356.5 502.29 356.5 498.14C356.5 494 353.14 490.64 349 490.64L349 490.64Z" />
			<path id="Layer" class="shp2" d="M251.47 415.76L257.88 409.35L264.29 415.76C265.75 417.23 267.67 417.96 269.59 417.96C271.51 417.96 273.43 417.23 274.9 415.76C277.83 412.83 277.83 408.08 274.9 405.15L268.49 398.74L274.9 392.33C277.83 389.4 277.83 384.66 274.9 381.73C271.97 378.8 267.22 378.8 264.29 381.73L257.88 388.14L251.47 381.73C248.54 378.8 243.79 378.8 240.86 381.73C237.93 384.66 237.93 389.4 240.86 392.33L247.27 398.74L240.86 405.15C237.93 408.08 237.93 412.83 240.86 415.76C242.33 417.23 244.25 417.96 246.17 417.96C248.09 417.96 250 417.22 251.47 415.76L251.47 415.76Z" />
			<path id="Layer" class="shp2" d="M200.35 497.69C197.42 494.76 192.67 494.76 189.74 497.69L183.33 504.1L176.92 497.69C173.99 494.76 169.24 494.76 166.31 497.69C163.38 500.62 163.38 505.37 166.31 508.3L172.72 514.71L166.31 521.12C163.38 524.05 163.38 528.8 166.31 531.73C167.78 533.19 169.7 533.92 171.62 533.92C173.54 533.92 175.46 533.19 176.92 531.73L183.33 525.32L189.74 531.73C191.21 533.19 193.13 533.92 195.04 533.92C196.96 533.92 198.88 533.19 200.35 531.73C203.28 528.8 203.28 524.05 200.35 521.12L193.94 514.71L200.35 508.3C203.28 505.37 203.28 500.62 200.35 497.69L200.35 497.69Z" />
			<path id="Layer" class="shp2" d="M432.28 497.69C429.35 494.76 424.6 494.76 421.67 497.69L415.26 504.1L408.85 497.69C405.92 494.76 401.17 494.76 398.25 497.69C395.32 500.62 395.32 505.37 398.25 508.3L404.66 514.71L398.25 521.12C395.32 524.05 395.32 528.8 398.25 531.73C399.71 533.19 401.63 533.92 403.55 533.92C405.47 533.92 407.39 533.19 408.85 531.73L415.26 525.32L421.67 531.73C423.14 533.19 425.06 533.92 426.98 533.92C428.89 533.92 430.81 533.19 432.28 531.73C435.21 528.8 435.21 524.05 432.28 521.12L425.87 514.71L432.28 508.3C435.21 505.37 435.21 500.62 432.28 497.69L432.28 497.69Z" />
			<path id="Layer" class="shp2" d="M531.68 497.69C528.75 494.76 524 494.76 521.08 497.69L514.66 504.1L508.25 497.69C505.32 494.76 500.57 494.76 497.65 497.69C494.72 500.62 494.72 505.37 497.65 508.3L504.06 514.71L497.65 521.12C494.72 524.05 494.72 528.8 497.65 531.73C499.11 533.19 501.03 533.92 502.95 533.92C504.87 533.92 506.79 533.19 508.25 531.73L514.66 525.32L521.07 531.73C522.54 533.19 524.46 533.92 526.38 533.92C528.3 533.92 530.22 533.19 531.68 531.73C534.61 528.8 534.61 524.05 531.68 521.12L525.27 514.71L531.68 508.3C534.61 505.37 534.61 500.62 531.68 497.69L531.68 497.69Z" />
			<path id="Layer" class="shp2" d="M357.73 381.73C354.8 378.8 350.05 378.8 347.13 381.73L340.71 388.14L334.3 381.73C331.37 378.8 326.63 378.8 323.7 381.73C320.77 384.66 320.77 389.4 323.7 392.33L330.11 398.74L323.7 405.15C320.77 408.08 320.77 412.83 323.7 415.76C325.16 417.23 327.08 417.96 329 417.96C330.92 417.96 332.84 417.22 334.3 415.76L340.71 409.35L347.12 415.76C348.59 417.23 350.51 417.96 352.43 417.96C354.35 417.96 356.27 417.22 357.73 415.76C360.66 412.83 360.66 408.08 357.73 405.15L351.32 398.74L357.73 392.33C360.66 389.4 360.66 384.66 357.73 381.73L357.73 381.73Z" />
			<path id="Layer" class="shp2" d="M100.95 497.69C98.02 494.76 93.27 494.76 90.34 497.69L83.93 504.1L77.52 497.69C74.59 494.76 69.84 494.76 66.91 497.69C63.98 500.62 63.98 505.37 66.91 508.3L73.32 514.71L66.91 521.12C63.98 524.05 63.98 528.8 66.91 531.73C68.38 533.19 70.3 533.92 72.22 533.92C74.13 533.92 76.06 533.19 77.52 531.73L83.93 525.32L90.34 531.73C91.81 533.19 93.72 533.92 95.64 533.92C97.56 533.92 99.48 533.19 100.95 531.73C103.88 528.8 103.88 524.05 100.95 521.12L94.54 514.71L100.95 508.3C103.88 505.37 103.88 500.62 100.95 497.69L100.95 497.69Z" />
			<path id="Layer" class="shp2" d="M133.5 323.07L149.6 323.07C153.75 323.07 157.1 319.71 157.1 315.57C157.1 311.42 153.75 308.07 149.6 308.07L133.5 308.07C91.97 308.07 58.17 274.27 58.17 232.73C58.17 191.22 91.93 157.44 133.44 157.4C133.46 157.4 133.49 157.4 133.51 157.4C175.05 157.4 208.84 191.2 208.84 232.73C208.84 236.88 212.2 240.23 216.34 240.23C220.48 240.23 223.84 236.88 223.84 232.73C223.84 185.46 187.33 146.55 141.03 142.72C141.03 142.35 141.01 141.98 141.01 141.62C141.01 128.39 144 115.74 149.91 104.02C151.78 100.32 150.29 95.81 146.59 93.95C142.89 92.08 138.38 93.57 136.52 97.27C129.54 111.1 126.01 126.02 126.01 141.62C126.01 141.98 126.01 142.34 126.01 142.71C79.69 146.53 43.17 185.45 43.17 232.73C43.17 282.54 83.7 323.07 133.5 323.07L133.5 323.07Z" />
			<path id="Layer" class="shp2" d="M484.92 175.62C474.78 146.03 446.88 125.83 415.14 125.83C402.72 125.83 390.69 128.91 379.92 134.78C369.41 119.06 351.51 109.27 332.31 109.27C327.57 109.27 322.91 109.84 318.37 110.98C312.44 92.87 301.22 76.62 286.23 64.61C268.83 50.67 246.95 43 224.62 43C198.85 43 174.47 52.88 155.98 70.82C153 73.7 152.93 78.45 155.81 81.42C158.7 84.39 163.44 84.47 166.42 81.58C182.1 66.38 202.77 58 224.62 58C261.56 58 293.55 81.78 304.39 116.52C286.64 126.44 275.11 145.37 275.11 166.47C275.11 170.61 278.46 173.97 282.61 173.97C286.75 173.97 290.11 170.61 290.11 166.47C290.11 149.09 300.7 133.7 316.46 127.34C316.71 127.24 320.16 125.96 321.72 125.61C324.32 125.02 328.66 124.27 332.31 124.27C348.54 124.27 363.52 133.76 370.47 148.45C371.42 150.45 373.19 151.93 375.33 152.49C377.46 153.06 379.74 152.66 381.55 151.39C391.44 144.49 403.06 140.83 415.14 140.83C441.99 140.83 465.4 158.98 472.07 184.95C472.94 188.35 476.02 190.71 479.56 190.58C479.56 190.58 480.96 190.53 481.41 190.53C513.81 190.53 540.17 216.9 540.17 249.3C540.17 281.71 513.81 308.07 481.41 308.07C449 308.07 422.64 281.71 422.64 249.3C422.64 245.16 419.28 241.8 415.14 241.8C411 241.8 407.64 245.16 407.64 249.3C407.64 273.26 419.13 294.58 436.88 308.07L179.61 308.07C175.46 308.07 172.11 311.42 172.11 315.57C172.11 319.71 175.46 323.07 179.61 323.07L481.41 323.07C522.08 323.07 555.17 289.98 555.17 249.3C555.17 209.8 523.97 177.45 484.92 175.62L484.92 175.62Z" />
		</g>
	</g>
</svg>