<svg xmlns="http://www.w3.org/2000/svg" viewBox="0 0 600 600" width="600" height="600">
	<style>
		tspan { white-space:pre }
		.shp0 { fill: #ddeafb } 
		.shp1 { fill: #bed8fb } 
		.shp2 { fill: #ecf4ff } 
		.shp3 { fill: #ffe07d } 
		.shp4 { fill: #ffd064 } 
		.shp5 { fill: #000000 } 
	</style>
	<g id="Layer">
		<g id="Layer">
			<path id="Layer" class="shp0" d="M340.42 183.03C316.62 183.03 297.53 162.61 299.24 138.47C300.65 118.65 316.35 102.44 336.12 100.42C338.9 100.13 341.63 100.13 344.29 100.38C347.91 100.72 351.26 98.42 352.45 94.98C361.37 69.1 385.93 50.5 414.84 50.5C436.54 50.5 455.78 60.97 467.81 77.13C470.88 81.25 475.66 83.67 480.8 83.63C480.9 83.63 481.01 83.63 481.11 83.63C508.84 83.63 531.27 106.35 530.8 134.18C530.35 161.43 507.55 183.03 480.29 183.03L340.42 183.03L340.42 183.03Z" />
			<path id="Layer" class="shp1" d="M481.11 83.63C481.01 83.63 480.9 83.63 480.8 83.63C475.66 83.67 470.88 81.25 467.81 77.13C455.78 60.97 436.54 50.5 414.84 50.5C410.93 50.5 407.09 50.85 403.36 51.51C420.27 54.48 434.96 63.9 444.81 77.13C447.87 81.25 452.66 83.67 457.8 83.63C457.9 83.63 458 83.63 458.11 83.63C485.84 83.63 508.27 106.34 507.8 134.18C507.35 161.43 484.55 183.03 457.29 183.03L480.29 183.03C507.55 183.03 530.35 161.43 530.8 134.18C531.27 106.35 508.84 83.63 481.11 83.63L481.11 83.63Z" />
			<g id="Layer">
				<g id="Layer">
					<path id="Layer" class="shp2" d="M481.24 216.17L481.22 216.17C480 216.17 478.95 215.35 478.6 214.17C470.58 186.61 445.13 166.47 414.97 166.47C403.7 166.47 393.09 169.29 383.79 174.26C380.15 176.21 375.63 175.19 373.32 171.77C364.38 158.58 349.28 149.9 332.14 149.9C328.13 149.9 324.24 150.38 320.5 151.27C316.46 152.25 312.29 150.07 310.98 146.13C298.98 109.83 264.78 83.63 224.46 83.63C174.13 83.63 133.34 124.43 133.34 174.75C133.34 175.89 133.37 177.03 133.42 178.16C133.46 179.28 133.1 180.38 132.41 181.26L132.34 181.35C131.47 182.46 130.17 183.11 128.77 183.19C84.68 185.59 49.76 222.44 50.52 267.31C51.29 312.66 89.02 348.7 134.38 348.7L480.25 348.7C516.67 348.7 547.03 319.73 547.5 283.31C547.98 246.31 518.13 216.17 481.24 216.17L481.24 216.17Z" />
					<path id="Layer" class="shp2" d="M481.24 216.17L481.22 216.17C480 216.17 478.95 215.35 478.6 214.17C470.58 186.61 445.13 166.47 414.97 166.47C403.7 166.47 393.09 169.29 383.79 174.26C380.15 176.21 375.63 175.19 373.32 171.77C364.38 158.58 349.28 149.9 332.14 149.9C328.13 149.9 324.24 150.38 320.5 151.27C316.46 152.25 312.29 150.07 310.98 146.13C298.98 109.83 264.78 83.63 224.46 83.63C174.13 83.63 133.34 124.43 133.34 174.75C133.34 175.89 133.37 177.03 133.42 178.16C133.46 179.28 133.1 180.38 132.41 181.26L132.34 181.35C131.47 182.46 130.17 183.11 128.77 183.19C84.68 185.59 49.76 222.44 50.52 267.31C51.29 312.66 89.02 348.7 134.38 348.7L480.25 348.7C516.67 348.7 547.03 319.73 547.5 283.31C547.98 246.31 518.13 216.17 481.24 216.17L481.24 216.17Z" />
					<path id="Layer" class="shp0" d="M481.24 216.17L481.22 216.17C480 216.17 478.95 215.35 478.6 214.17C470.58 186.61 445.13 166.47 414.97 166.47C411.05 166.47 407.21 166.82 403.48 167.47C428.46 171.85 448.62 190.2 455.6 214.17C455.94 215.35 457 216.17 458.22 216.17L458.24 216.17C495.13 216.17 524.98 246.31 524.5 283.31C524.03 319.73 493.67 348.7 457.25 348.7L480.25 348.7C516.67 348.7 547.03 319.73 547.5 283.31C547.98 246.31 518.13 216.17 481.24 216.17L481.24 216.17Z" />
				</g>
			</g>
			<path id="Layer" class="shp3" d="M272.75 315.57L337.21 315.57C342.87 315.57 346.86 321.11 345.07 326.47L319.21 404.07C317.42 409.43 321.41 414.97 327.06 414.97L343.44 414.97C349.63 414.97 353.64 421.52 350.81 427.03L290.2 545.37C287.93 549.42 281.74 547.24 282.5 542.66L297.31 457.81C298.2 452.74 294.3 448.1 289.15 448.1L251 448.1C245.82 448.1 241.91 443.39 242.86 438.29L264.61 322.32C265.34 318.41 268.76 315.57 272.75 315.57L272.75 315.57Z" />
			<path id="Layer" class="shp4" d="M343.44 414.97L327.07 414.97C321.41 414.97 317.42 409.43 319.21 404.06L345.07 326.47C346.86 321.1 342.87 315.57 337.21 315.57L314.21 315.57C319.87 315.57 323.86 321.1 322.07 326.47L296.21 404.06C294.42 409.43 298.41 414.97 304.07 414.97L320.44 414.97C326.63 414.97 330.64 421.51 327.81 427.03L289.7 501.45L282.5 542.66C281.74 547.24 287.93 549.42 290.2 545.37L350.81 427.03C353.64 421.51 349.63 414.97 343.44 414.97Z" />
		</g>
		<g id="Layer">
			<path id="Layer" fill-rule="evenodd" class="shp5" d="M484.75 208.75C523.8 210.59 555.01 242.94 555.01 282.44C555.01 323.11 521.91 356.2 481.24 356.2L343.07 356.2L326.32 406.44C326.29 406.53 326.2 406.82 326.43 407.15C326.67 407.47 326.97 407.47 327.07 407.47L343.44 407.47C348.98 407.47 354.02 410.29 356.91 415.02C359.8 419.75 360.02 425.52 357.49 430.45L296.88 548.8C296.83 548.88 296.79 548.97 296.74 549.06C294.6 552.85 290.78 555.02 286.7 555.02C285.38 555.02 284.04 554.79 282.72 554.33C277.29 552.41 274.16 547.11 275.11 541.43L289.92 456.52C289.94 456.43 289.99 456.16 289.75 455.88C289.52 455.6 289.24 455.6 289.15 455.6L251 455.6C246.29 455.6 241.87 453.53 238.86 449.9C235.85 446.28 234.62 441.54 235.49 436.91L250.62 356.2L179.44 356.2C175.3 356.2 171.94 352.85 171.94 348.7C171.94 344.56 175.3 341.2 179.44 341.2L253.43 341.2L257.23 320.94C258.63 313.49 265.15 308.07 272.75 308.07L337.21 308.07C342.27 308.07 347.06 310.52 350.02 314.63C352.97 318.73 353.79 324.05 352.19 328.85L348.07 341.2L436.72 341.2C418.96 327.72 407.47 306.4 407.47 282.44C407.47 278.3 410.83 274.94 414.97 274.94C419.11 274.94 422.47 278.3 422.47 282.44C422.47 314.84 448.83 341.2 481.24 341.2C513.64 341.2 540 314.84 540 282.44C540 250.03 513.64 223.67 481.24 223.67C480.79 223.67 479.4 223.72 479.4 223.72C475.84 223.82 472.77 221.49 471.9 218.09C465.24 192.11 441.82 173.97 414.97 173.97C402.89 173.97 391.27 177.62 381.38 184.53C379.57 185.8 377.29 186.2 375.16 185.63C373.02 185.06 371.25 183.59 370.3 181.59C363.35 166.9 348.37 157.4 332.14 157.4C326.55 157.4 321.05 158.51 315.92 160.63C300.37 167.09 289.94 182.36 289.94 199.6C289.94 203.75 286.58 207.1 282.44 207.1C278.29 207.1 274.94 203.75 274.94 199.6C274.94 178.5 286.47 159.57 304.22 149.66C302.2 143.17 299.44 137.07 296.05 131.44L295.13 129.93C280.17 106.23 253.88 91.13 224.46 91.13C206.41 91.13 189.22 96.79 174.76 107.5C171.43 109.96 166.74 109.26 164.27 105.93C161.81 102.6 162.51 97.9 165.84 95.44C182.9 82.81 203.17 76.13 224.46 76.13C246.79 76.13 268.67 83.81 286.06 97.74C291.63 102.2 296.68 107.26 301.13 112.77C310.19 100.42 324.82 92.7 340.55 92.7C342.15 92.7 343.75 92.78 345.34 92.93C355.32 63.21 383.02 43 414.97 43C439.87 43 463.01 55.65 476.52 76.33C478.1 76.2 479.68 76.13 481.24 76.13C512.78 76.13 538.44 101.79 538.44 133.33C538.44 164.87 512.78 190.53 481.24 190.53L475.5 190.52C479.36 196.06 482.5 202.17 484.75 208.75ZM379.75 167.92C390.53 162.04 402.55 158.97 414.97 158.97C432.42 158.97 448.7 165.08 461.52 175.49L481.25 175.53C504.51 175.53 523.44 156.6 523.44 133.33C523.44 110.06 504.51 91.13 481.24 91.13C478.84 91.13 473.83 91.79 473.77 91.79C453.64 95.38 439.04 112.83 439.04 133.33C439.04 137.48 435.68 140.83 431.54 140.83C427.4 140.83 424.04 137.48 424.04 133.33C424.04 109.25 438.91 88.29 460.64 79.95C449.63 66.22 432.87 58 414.97 58C387.64 58 364.22 76.57 358.01 103.17C357.55 105.13 356.33 106.82 354.61 107.87C352.89 108.92 350.82 109.23 348.87 108.73C346.16 108.05 343.36 107.7 340.55 107.7C327.76 107.7 316.03 115.08 310.35 126.36C313.54 132 316.19 137.95 318.21 144.11C322.74 142.97 327.4 142.4 332.14 142.4C351.34 142.4 369.25 152.19 379.75 167.92ZM330.5 346.48C330.5 346.47 330.5 346.47 330.5 346.46L337.96 324.1C337.99 324 338.08 323.72 337.85 323.39C337.61 323.07 337.31 323.07 337.21 323.07L272.75 323.07C272.37 323.07 272.04 323.34 271.98 323.71L267.01 350.2C267.01 350.21 267.01 350.21 267.01 350.22L250.23 439.67C250.22 439.76 250.17 440.04 250.4 440.32C250.64 440.6 250.91 440.6 251 440.6L289.15 440.6C293.82 440.6 298.23 442.65 301.23 446.23C304.24 449.81 305.5 454.5 304.7 459.1L293.71 522.06L344.14 423.61C344.2 423.49 344.34 423.22 344.11 422.84C343.88 422.47 343.57 422.47 343.44 422.47L327.07 422.47C322.01 422.47 317.22 420.02 314.26 415.91C311.3 411.81 310.49 406.49 312.09 401.69L330.5 346.48Z" />
			<path id="Layer" class="shp5" d="M149.44 341.2L133.34 341.2C91.8 341.2 58.01 307.41 58.01 265.87C58.01 224.35 91.76 190.57 133.27 190.53C133.41 190.54 133.55 190.54 133.69 190.54C133.69 190.54 133.7 190.54 133.7 190.54C175.07 190.74 208.67 224.45 208.67 265.87C208.67 270.01 212.03 273.37 216.17 273.37C220.32 273.37 223.67 270.01 223.67 265.87C223.67 218.59 187.17 179.69 140.87 175.85C140.86 175.48 140.84 175.11 140.84 174.75C140.84 157.63 145.97 141.18 155.69 127.17C158.05 123.76 157.2 119.09 153.8 116.73C150.39 114.37 145.72 115.22 143.36 118.62C131.9 135.15 125.84 154.56 125.84 174.75C125.84 175.11 125.84 175.47 125.85 175.84C79.53 179.66 43.01 218.58 43.01 265.86C43.01 315.67 83.53 356.2 133.34 356.2L149.44 356.2C153.58 356.2 156.94 352.84 156.94 348.7C156.94 344.56 153.58 341.2 149.44 341.2L149.44 341.2Z" />
			<path id="Layer" class="shp5" d="M83.64 374.33C79.5 374.33 76.14 377.69 76.14 381.83L76.14 448.1C76.14 452.24 79.5 455.6 83.64 455.6C87.78 455.6 91.14 452.24 91.14 448.1L91.14 381.83C91.14 377.69 87.78 374.33 83.64 374.33Z" />
			<path id="Layer" class="shp5" d="M191.32 374.33C187.18 374.33 183.82 377.69 183.82 381.83L183.82 448.1C183.82 452.24 187.18 455.6 191.32 455.6C195.47 455.6 198.82 452.24 198.82 448.1L198.82 381.83C198.82 377.69 195.47 374.33 191.32 374.33Z" />
			<path id="Layer" class="shp5" d="M137.48 473.73C133.34 473.73 129.98 477.09 129.98 481.23L129.98 547.5C129.98 551.64 133.34 555 137.48 555C141.62 555 144.98 551.64 144.98 547.5L144.98 481.23C144.98 477.09 141.62 473.73 137.48 473.73Z" />
			<path id="Layer" class="shp5" d="M406.69 374.33C402.55 374.33 399.19 377.69 399.19 381.83L399.19 448.1C399.19 452.24 402.55 455.6 406.69 455.6C410.83 455.6 414.19 452.24 414.19 448.1L414.19 381.83C414.19 377.69 410.83 374.33 406.69 374.33Z" />
			<path id="Layer" class="shp5" d="M514.37 374.33C510.23 374.33 506.87 377.69 506.87 381.83L506.87 448.1C506.87 452.24 510.23 455.6 514.37 455.6C518.52 455.6 521.87 452.24 521.87 448.1L521.87 381.83C521.87 377.69 518.51 374.33 514.37 374.33Z" />
			<path id="Layer" class="shp5" d="M460.53 473.73C456.39 473.73 453.03 477.09 453.03 481.23L453.03 547.5C453.03 551.64 456.39 555 460.53 555C464.67 555 468.03 551.64 468.03 547.5L468.03 481.23C468.03 477.09 464.67 473.73 460.53 473.73Z" />
		</g>
	</g>
</svg>